<svg width="23" height="23" viewBox="0 0 23 23" fill="none" xmlns="http://www.w3.org/2000/svg">
<g id="Group">
<g id="Group_2">
<path id="Vector" d="M22.2333 14.6858C22.0911 14.3387 21.7561 14.129 21.4018 14.1285C21.4 14.1285 21.3982 14.1281 21.3964 14.1281C21.3906 14.1281 21.3856 14.1303 21.3798 14.1308C21.3104 14.1326 21.2411 14.1438 21.1722 14.1623C21.1466 14.169 21.1223 14.1758 21.0975 14.1843C21.0849 14.1888 21.0719 14.1906 21.0588 14.1956C19.9293 14.6597 18.7296 14.8952 17.4921 14.8952C12.3164 14.8952 8.10551 10.6842 8.10551 5.50859C8.10551 4.27106 8.3405 3.07135 8.80508 1.94187C8.81184 1.92611 8.81409 1.90945 8.81949 1.89325C8.82624 1.87344 8.83209 1.85363 8.83749 1.83292C8.85775 1.75864 8.87036 1.68392 8.87126 1.60919C8.87126 1.60604 8.87261 1.60288 8.87261 1.59928C8.87261 1.59838 8.87216 1.59703 8.87216 1.59613C8.87216 1.54211 8.86586 1.48899 8.85595 1.43677C8.8537 1.42552 8.8519 1.41426 8.84965 1.40301C8.83795 1.35124 8.82309 1.29992 8.80238 1.2513C8.79428 1.23239 8.78302 1.21619 8.77402 1.19818C8.67993 1.01046 8.52417 0.852445 8.31439 0.766462C8.06905 0.666073 7.8066 0.68408 7.58511 0.789871C7.58286 0.790772 7.58016 0.791222 7.57791 0.792572C6.23234 1.34584 5.01777 2.15795 3.96797 3.20775C-0.38926 7.57038 -0.38926 14.6687 3.96842 19.0323C6.14996 21.2111 9.01486 22.3001 11.8802 22.3001C14.7456 22.3001 17.6109 21.2106 19.7929 19.0318C20.8391 17.9851 21.6499 16.7746 22.2031 15.4336C22.2058 15.4286 22.2067 15.4228 22.209 15.4174C22.2347 15.3638 22.2554 15.308 22.2702 15.2499C22.2711 15.2454 22.2729 15.2413 22.2743 15.2368C22.317 15.0595 22.308 14.8677 22.2333 14.6858ZM18.5207 17.7587C14.8595 21.4146 8.90277 21.4146 5.24241 17.7587C1.5861 14.0979 1.5861 8.1412 5.24196 4.48084C5.63271 4.09009 6.05497 3.74571 6.49749 3.43554C6.37054 4.1144 6.30482 4.80632 6.30482 5.50904C6.30482 11.6778 11.3234 16.6963 17.4921 16.6963C18.1943 16.6963 18.8867 16.6306 19.5656 16.5036C19.255 16.9457 18.9115 17.368 18.5207 17.7587Z" fill="white"/>
</g>
</g>
</svg>
