<svg width="27" height="27" viewBox="0 0 27 27" fill="none" xmlns="http://www.w3.org/2000/svg">
<g id="Afternoon">
<path id="Line 4 (Stroke)" fill-rule="evenodd" clip-rule="evenodd" d="M0 13.5C0 12.9036 0.483532 12.42 1.08 12.42H3.24C3.83647 12.42 4.32 12.9036 4.32 13.5C4.32 14.0965 3.83647 14.58 3.24 14.58H1.08C0.483532 14.58 0 14.0965 0 13.5Z" fill="white"/>
<path id="Line 5 (Stroke)" fill-rule="evenodd" clip-rule="evenodd" d="M22.68 13.5C22.68 12.9036 23.1635 12.42 23.76 12.42H25.92C26.5165 12.42 27 12.9036 27 13.5C27 14.0965 26.5165 14.58 25.92 14.58H23.76C23.1635 14.58 22.68 14.0965 22.68 13.5Z" fill="white"/>
<path id="Line 6 (Stroke)" fill-rule="evenodd" clip-rule="evenodd" d="M13.5 -4.72083e-08C14.0965 -2.11359e-08 14.58 0.483532 14.58 1.08L14.58 3.24C14.58 3.83647 14.0965 4.32 13.5 4.32C12.9035 4.32 12.42 3.83647 12.42 3.24L12.42 1.08C12.42 0.483532 12.9035 -7.32807e-08 13.5 -4.72083e-08Z" fill="white"/>
<path id="Line 7 (Stroke)" fill-rule="evenodd" clip-rule="evenodd" d="M13.5 22.6801C14.0965 22.6801 14.58 23.1636 14.58 23.7601L14.58 25.9201C14.58 26.5165 14.0965 27.0001 13.5 27.0001C12.9035 27.0001 12.42 26.5165 12.42 25.9201L12.42 23.7601C12.42 23.1636 12.9035 22.6801 13.5 22.6801Z" fill="white"/>
<path id="Line 8 (Stroke)" fill-rule="evenodd" clip-rule="evenodd" d="M3.95407 3.95411C4.37583 3.53234 5.05965 3.53234 5.48142 3.95411L7.00877 5.48146C7.43054 5.90322 7.43054 6.58704 7.00877 7.00881C6.587 7.43057 5.90318 7.43057 5.48142 7.00881L3.95407 5.48146C3.5323 5.05969 3.5323 4.37587 3.95407 3.95411Z" fill="white"/>
<path id="Line 9 (Stroke)" fill-rule="evenodd" clip-rule="evenodd" d="M19.9912 19.9912C20.413 19.5694 21.0968 19.5694 21.5186 19.9912L23.0459 21.5186C23.4677 21.9403 23.4677 22.6241 23.0459 23.0459C22.6242 23.4677 21.9404 23.4677 21.5186 23.0459L19.9912 21.5186C19.5695 21.0968 19.5695 20.413 19.9912 19.9912Z" fill="white"/>
<path id="Line 10 (Stroke)" fill-rule="evenodd" clip-rule="evenodd" d="M3.95404 23.0459C3.53228 22.6241 3.53228 21.9403 3.95404 21.5186L5.48139 19.9912C5.90316 19.5694 6.58698 19.5694 7.00874 19.9912C7.43051 20.413 7.43051 21.0968 7.00874 21.5186L5.48139 23.0459C5.05963 23.4677 4.37581 23.4677 3.95404 23.0459Z" fill="white"/>
<path id="Line 11 (Stroke)" fill-rule="evenodd" clip-rule="evenodd" d="M19.9912 7.00879C19.5695 6.58703 19.5695 5.90321 19.9912 5.48144L21.5186 3.95409C21.9404 3.53232 22.6242 3.53232 23.0459 3.95409C23.4677 4.37586 23.4677 5.05968 23.0459 5.48144L21.5186 7.00879C21.0968 7.43056 20.413 7.43056 19.9912 7.00879Z" fill="white"/>
<path id="Ellipse 1 (Stroke)" fill-rule="evenodd" clip-rule="evenodd" d="M13.5 18.63C16.3332 18.63 18.63 16.3332 18.63 13.5C18.63 10.6667 16.3332 8.36996 13.5 8.36996C10.6668 8.36996 8.36999 10.6667 8.36999 13.5C8.36999 16.3332 10.6668 18.63 13.5 18.63ZM13.5 20.79C17.5261 20.79 20.79 17.5261 20.79 13.5C20.79 9.47381 17.5261 6.20996 13.5 6.20996C9.47384 6.20996 6.20999 9.47381 6.20999 13.5C6.20999 17.5261 9.47384 20.79 13.5 20.79Z" fill="white"/>
</g>
</svg>
