<svg width="28" height="27" viewBox="0 0 28 27" fill="none" xmlns="http://www.w3.org/2000/svg">
<g id="Group">
<path id="Vector" d="M24.3711 12.9727H26.4453C27.0278 12.9727 27.5 13.4448 27.5 14.0273C27.5 14.6098 27.0278 15.082 26.4453 15.082H24.3711C23.7886 15.082 23.3164 14.6098 23.3164 14.0273C23.3164 13.4448 23.7886 12.9727 24.3711 12.9727ZM1.55469 15.082H3.62889C4.21139 15.082 4.68358 14.6098 4.68358 14.0273C4.68358 13.4448 4.21139 12.9727 3.62889 12.9727H1.55469C0.972184 12.9727 0.5 13.4448 0.5 14.0273C0.5 14.6098 0.972184 15.082 1.55469 15.082ZM14 4.71092C14.5825 4.71092 15.0547 4.23874 15.0547 3.65623V1.58203C15.0547 0.999527 14.5825 0.527344 14 0.527344C13.4175 0.527344 12.9453 0.999527 12.9453 1.58203V3.65623C12.9453 4.23874 13.4175 4.71092 14 4.71092ZM5.92072 7.43966C6.33253 7.85146 7.00041 7.85157 7.41232 7.43966C7.82422 7.02775 7.82422 6.35992 7.41232 5.94807L5.94567 4.48137C5.53376 4.06946 4.86593 4.06946 4.45408 4.48137C4.04222 4.89328 4.04217 5.5611 4.45408 5.97296L5.92072 7.43966ZM22.0793 7.43966L23.546 5.97296C23.9579 5.56105 23.9579 4.89322 23.546 4.48137C23.1341 4.06951 22.4662 4.06946 22.0544 4.48137L20.5877 5.94807C20.1758 6.35998 20.1758 7.0278 20.5877 7.43966C20.9995 7.85146 21.6674 7.85157 22.0793 7.43966ZM27.5 20.25C27.5 20.8325 27.0278 21.3047 26.4453 21.3047C25.2131 21.3047 1.80934 21.3047 1.55469 21.3047C0.972184 21.3047 0.5 20.8325 0.5 20.25C0.5 19.6675 0.972184 19.1953 1.55469 19.1953H8.86905C7.53883 17.8745 6.71385 16.0455 6.71385 14.0273C6.71385 10.0097 9.98238 6.74119 14 6.74119C18.0176 6.74119 21.2861 10.0097 21.2861 14.0273C21.2861 16.0455 20.4612 17.8745 19.1309 19.1953H26.4453C27.0278 19.1953 27.5 19.6675 27.5 20.25ZM13.7017 19.1953H14.2984C17.0146 19.0402 19.1768 16.7817 19.1768 14.0273C19.1768 11.1728 16.8546 8.85057 14.0001 8.85057C11.1455 8.85057 8.82322 11.1728 8.82322 14.0273C8.82322 16.7817 10.9855 19.0402 13.7017 19.1953ZM22.2969 24.3633H5.70314C5.12064 24.3633 4.64846 24.8355 4.64846 25.418C4.64846 26.0005 5.12064 26.4727 5.70314 26.4727H22.2969C22.8794 26.4727 23.3515 26.0005 23.3515 25.418C23.3515 24.8355 22.8794 24.3633 22.2969 24.3633Z" fill="white"/>
</g>
</svg>
